<svg xmlns="http://www.w3.org/2000/svg" viewBox="0 0 200 200" role="img" aria-label="ELEKTRON">
  <defs>
    <linearGradient id="bg" x1="0%" y1="0%" x2="100%" y2="100%">
      <stop offset="0%" stop-color="#0a1628"/>
      <stop offset="100%" stop-color="#0d2847"/>
    </linearGradient>
    <linearGradient id="glow" x1="0%" y1="0%" x2="100%" y2="100%">
      <stop offset="0%" stop-color="#06b6d4"/>
      <stop offset="100%" stop-color="#3b82f6"/>
    </linearGradient>
    <filter id="blur"><feGaussianBlur stdDeviation="2"/></filter>
  </defs>
  <rect width="200" height="200" rx="24" fill="url(#bg)"/>
  <g opacity="0.35" stroke="#06b6d4" stroke-width="0.8" fill="none">
    <path d="M20 40h160M20 80h160M20 120h160M20 160h160"/>
    <path d="M40 20v160M80 20v160M120 20v160M160 20v160"/>
  </g>
  <rect x="62" y="62" width="76" height="76" rx="6" fill="#111827" stroke="url(#glow)" stroke-width="2"/>
  <g stroke="url(#glow)" stroke-width="1.5" fill="none">
    <line x1="62" y1="82" x2="48" y2="82"/><line x1="62" y1="100" x2="48" y2="100"/>
    <line x1="62" y1="118" x2="48" y2="118"/><line x1="138" y1="82" x2="152" y2="82"/>
    <line x1="138" y1="100" x2="152" y2="100"/><line x1="138" y1="118" x2="152" y2="118"/>
    <line x1="82" y1="62" x2="82" y2="48"/><line x1="100" y1="62" x2="100" y2="48"/>
    <line x1="118" y1="62" x2="118" y2="48"/><line x1="82" y1="138" x2="82" y2="152"/>
    <line x1="100" y1="138" x2="100" y2="152"/><line x1="118" y1="138" x2="118" y2="152"/>
  </g>
  <rect x="78" y="78" width="44" height="44" rx="3" fill="url(#glow)" opacity="0.25"/>
  <circle cx="100" cy="100" r="6" fill="#06b6d4" filter="url(#blur)"/>
  <text x="100" y="168" text-anchor="middle" font-family="Arial,sans-serif" font-weight="700" font-size="18" fill="#ffffff" letter-spacing="3">ELEKTRON</text>
</svg>
